<svg viewBox="0 0 42 46" fill="none" xmlns="http://www.w3.org/2000/svg" width="50" height="32"><path d="M17.361 0C11.91 0 8.407 2.518 7.312 5.22 3.02 6.135 0 10.83 0 15.999c0 2.127.617 4.257 1.686 6.621C.813 23.687 0 25.026 0 27c0 2.587 1.694 5.08 4.713 6.469-.948 2.206-.745 4.333.385 5.847 1.173 1.573 3.144 2.391 5.261 2.553.642 1.686 1.798 2.857 3.079 3.414 1.458.635 2.95.717 3.923.717a4.593 4.593 0 003.641-1.79A4.63 4.63 0 0024.631 46h.002c.92.007 2.406-.077 3.877-.71 1.269-.548 2.423-1.699 3.084-3.34 1.598-.052 3.252-.29 4.654-1.079C37.823 39.984 39 38.304 39 36c0-.9-.325-1.733-.709-2.568 1.284-.639 2.296-1.456 2.85-2.465C41.839 29.695 42 28.3 42 27c0-1.993-.941-3.192-1.855-4.172 1.084-2.364 1.89-4.65 1.855-6.846-.093-5.834-4.025-9.93-8.29-10.777C32.76 2.707 30.06 0 24.64 0c-1.364 0-2.69.35-3.526 1.428-.04.053-.075.112-.113.168-.038-.056-.072-.115-.113-.168C20.05.35 18.725 0 17.36 0zm0 2c1.08 0 1.573.172 1.946.652.372.48.693 1.56.693 3.534v5.646a1.003 1.003 0 000 .326V16h-3v-5h-4.188C12.396 9.843 11.293 9 10 9c-1.645 0-3 1.355-3 3s1.355 3 3 3c1.293 0 2.395-.843 2.813-2H15v5h5v8h-7v6.188c-1.157.417-2 1.519-2 2.812 0 1.645 1.355 3 3 3s3-1.355 3-3c0-1.293-.843-2.395-2-2.813V28h5v6.832a1.003 1.003 0 000 .326v6.174C20 42.968 18.94 44 17.361 44c-.842 0-2.082-.097-3.125-.55-1.043-.455-1.889-1.166-2.265-2.69l-.188-.76H11c-1.834 0-3.466-.763-4.299-1.879-.832-1.116-1.053-2.574.158-4.61l.633-1.064-1.174-.394C3.267 31.027 2 28.976 2 27c0-1.72.638-2.587 1.541-3.574L3.93 23h3.257c.418 1.157 1.52 2 2.813 2 1.645 0 3-1.355 3-3s-1.355-3-3-3c-1.293 0-2.395.843-2.813 2H3.133C2.375 19.154 2 17.561 2 15.998c0-4.59 2.875-8.607 6.121-9.006l.66-.08.18-.639C9.409 4.7 12.239 2 17.36 2zm7.278 0c5.122 0 6.876 2.433 7.4 4.273l.182.64.658.08c3.372.413 7.038 3.837 7.121 9.023.03 1.84-.723 4.084-1.902 6.552l-.303.635.492.498C39.33 24.76 40 25.321 40 27c0 1.127-.154 2.166-.613 3.004-.293.534-.736 1.005-1.387 1.412V27h-9v-3.188c1.157-.417 2-1.519 2-2.812 0-1.645-1.355-3-3-3s-3 1.355-3 3c0 1.293.843 2.395 2 2.813V29h9v3.857a1 1 0 00.129.66l.002.002C36.649 34.578 37 35.476 37 36c0 1.696-.647 2.516-1.734 3.129-1.088.613-2.69.871-4.266.871h-.783l-.188.76c-.373 1.513-1.246 2.235-2.31 2.693-1.064.458-2.309.552-3.073.547C23.06 43.989 22 42.968 22 41.332V36h4.188c.417 1.157 1.519 2 2.812 2 1.645 0 3-1.355 3-3s-1.355-3-3-3c-1.293 0-2.395.843-2.813 2H22v-6.832a1.003 1.003 0 000-.326v-9.674a1.003 1.003 0 000-.326V13h8.188c.417 1.157 1.519 2 2.812 2 1.645 0 3-1.355 3-3s-1.355-3-3-3c-1.293 0-2.395.843-2.813 2H22V6.186c0-1.975.32-3.053.693-3.534.373-.48.867-.652 1.946-.652zM10 11c.544 0 .958.409.988.943A.978.978 0 0110 13c-.564 0-1-.436-1-1 0-.564.436-1 1-1zm23 0c.564 0 1 .436 1 1 0 .564-.436 1-1 1a.978.978 0 01-.988-.943A.978.978 0 0133 11zm-5 9c.564 0 1 .436 1 1a.978.978 0 01-1.016.986l-.043.002A.978.978 0 0127 21c0-.564.436-1 1-1zm-18 1c.564 0 1 .436 1 1 0 .564-.436 1-1 1a.978.978 0 01-.988-.943A.978.978 0 0110 21zm19 13c.564 0 1 .436 1 1 0 .564-.436 1-1 1a.978.978 0 01-.988-.943A.978.978 0 0129 34zm-15.057.012c.039.002.077.002.116 0 .533.03.941.445.941.988 0 .564-.436 1-1 1-.564 0-1-.436-1-1 0-.544.409-.958.943-.988z" fill="#E6D0B8"></path></svg>