<svg width="47" height="42" fill="none" xmlns="http://www.w3.org/2000/svg"><path d="M24 0c-5.5 0-10 4.5-10 10s4.5 10 10 10 10-4.5 10-10S29.5 0 24 0zM6.947.992A1 1 0 006.4 2.801l4 3a1 1 0 101.2-1.602l-4-3a1 1 0 00-.653-.207zm34.076 0a1 1 0 00-.623.207l-4 3a1 1 0 101.2 1.602l4-3a1 1 0 00-.577-1.809zM24 2c4.4 0 8 3.6 8 8s-3.6 8-8 8-8-3.6-8-8 3.6-8 8-8zm.8 4L21 7.2v1.4l2-.5V14h2V6h-.2zM5 9a1 1 0 100 2h5a1 1 0 100-2H5zm33 0a1 1 0 100 2h5a1 1 0 100-2h-5zm-26.977 4.992a1 1 0 00-.623.207l-4 3a1 1 0 101.2 1.602l4-3a1 1 0 00-.577-1.809zm25.924 0a1 1 0 00-.547 1.809l4 3a1 1 0 101.2-1.602l-4-3a1 1 0 00-.653-.207zm6.211 7.992a3.76 3.76 0 00-1.941.578l-11.1 6.84c-.256-.14-.57-.294-.984-.494-.476-.229-.973-.463-1.254-.59-1.51-.683-6.327-2.67-9.983-4.275a12.506 12.506 0 00-9.834-.092l-6.447 2.686a1 1 0 10.77 1.845l6.447-2.685a10.497 10.497 0 018.26.078c3.69 1.62 8.585 3.643 9.963 4.266.247.112.747.347 1.21.57.465.223.952.47.993.494.446.26.742.724.742 1.283 0 .841-.66 1.5-1.5 1.5-.12 0-.232-.013-.34-.039h-.002c-.025-.006-.816-.228-1.775-.51-.96-.281-2.18-.643-3.38-1-2.398-.713-4.716-1.408-4.716-1.408a1 1 0 00-.574 1.916s2.32.694 4.723 1.408c1.2.358 2.421.72 3.384 1.002.963.283 1.575.466 1.875.538.26.062.53.093.805.093 1.921 0 3.5-1.578 3.5-3.5 0-.592-.155-1.148-.418-1.638l10.693-6.59.01-.006a1.755 1.755 0 012.442.553 1.757 1.757 0 01-.53 2.427L28.424 39.185a4.004 4.004 0 01-3.762.584l-11.648-4.128a8.354 8.354 0 00-8.125.986l-3.485 2.557a1 1 0 101.184 1.61l3.484-2.554a6.344 6.344 0 016.225-.732l11.697 4.146a6.011 6.011 0 005.639-.875l15.736-11.924a3.785 3.785 0 001.049-5.115 3.785 3.785 0 00-3.26-1.756z" fill="#000"></path></svg>