<svg width="50" height="32" fill="none" xmlns="http://www.w3.org/2000/svg"><path d="M28.992.547c-5.215 0-9.61 3.113-11.73 7.523-1.133-.78-2.43-1.347-3.907-1.347-3.714 0-6.703 2.941-6.925 6.601C2.707 14.672 0 18.152 0 22.328 0 27.66 4.34 32 9.672 32h31.426C46.004 32 50 28.004 50 23.098c0-4.551-3.488-8.18-7.906-8.7.015-.234.047-.46.047-.703 0-7.25-5.899-13.148-13.149-13.148zm0 2c6.172 0 11.149 4.98 11.149 11.148 0 .457-.035.914-.094 1.383l-.14 1.121H41.097A6.886 6.886 0 0148 23.098 6.887 6.887 0 0141.098 30H9.672A7.655 7.655 0 012 22.328c0-3.535 2.387-6.488 5.625-7.383l.762-.21-.028-.786c-.004-.14-.011-.21-.011-.219a4.993 4.993 0 015.007-5.007c1.391 0 2.637.562 3.543 1.468L18 11.297l.547-1.465c1.57-4.246 5.637-7.285 10.445-7.285zm-8.004 11.441a1 1 0 00-.695 1.719L24.586 20l-4.293 4.293a.992.992 0 00-.273.973.99.99 0 00.714.715.992.992 0 00.973-.274L26 21.414l4.293 4.293c.25.262.625.367.973.273a.99.99 0 00.715-.714.992.992 0 00-.274-.973L27.414 20l4.293-4.293a.997.997 0 00.223-1.105.995.995 0 00-1.637-.309L26 18.586l-4.293-4.293a1.008 1.008 0 00-.719-.305z" fill="#E6D0B8"></path></svg>