<svg width="40" height="40" fill="#E6D0B8" xmlns="http://www.w3.org/2000/svg"><path clip-rule="evenodd" d="M21.125.75l14.063 7.031a2.56 2.56 0 011.374 2.282c0 11.062-3.906 18.28-7.187 22.406-3.594 4.5-7.719 6.906-9.344 6.906-1.656 0-5.812-2.344-9.375-6.75C7.375 28.531 3.47 21.312 3.47 10.031c0-.968.531-1.812 1.375-2.25L18.875.75a2.583 2.583 0 012.25 0zM20 37.5c.625 0 4.281-1.656 7.938-6.219 3.062-3.875 6.75-10.687 6.75-21.218 0-.25-.126-.5-.344-.594L20.28 2.438A.912.912 0 0020 2.375c-.094 0-.188.031-.281.063L5.687 9.468c-.218.095-.343.313-.343.563-.032 10.75 3.656 17.563 6.75 21.406C15.719 35.907 19.375 37.5 20 37.5zm-1.563-15.063l7.938-7.937a.906.906 0 011.313 0c.375.344.375.938 0 1.313l-8.594 8.593a.953.953 0 01-.657.282.953.953 0 01-.656-.282l-3.75-3.75c-.375-.343-.375-.937 0-1.312.344-.375.938-.375 1.313 0l3.094 3.093z"></path></svg>